<svg width="25" height="39" viewBox="0 0 32 39" fill="none" xmlns="http://www.w3.org/2000/svg">
<path d="M15.1579 38.0463V31.9832C6.72 31.5453 0 24.5389 0 16C0 7.17474 7.17474 0 16 0C24.8253 0 32 7.17474 32 16C32 24.3368 26.2063 32.7242 17.5663 36.8842L15.1579 38.0463ZM16 3.36842C9.02737 3.36842 3.36842 9.02737 3.36842 16C3.36842 22.9726 9.02737 28.6316 16 28.6316H18.5263V32.5053C24.6568 28.6316 28.6316 22.2653 28.6316 16C28.6316 9.02737 22.9726 3.36842 16 3.36842ZM14.3158 22.7368H17.6842V26.1053H14.3158V22.7368ZM17.6842 20.2105H14.3158C14.3158 14.7368 19.3684 15.1579 19.3684 11.7895C19.3684 9.93684 17.8526 8.42105 16 8.42105C14.1474 8.42105 12.6316 9.93684 12.6316 11.7895H9.26316C9.26316 8.06737 12.2779 5.05263 16 5.05263C19.7221 5.05263 22.7368 8.06737 22.7368 11.7895C22.7368 16 17.6842 16.4211 17.6842 20.2105Z" fill="#8E73DF"/>
</svg>
