<svg width="108" height="105" viewBox="0 0 108 105" fill="none" xmlns="http://www.w3.org/2000/svg">
<g clip-path="url(#clip0)">
<path d="M99.09 0.0799999H11.1C6.53812 0.0799999 2.84 3.77813 2.84 8.34V96.33C2.84 100.892 6.53812 104.59 11.1 104.59H99.09C103.652 104.59 107.35 100.892 107.35 96.33V8.34C107.35 3.77813 103.652 0.0799999 99.09 0.0799999Z" fill="white"/>
<path d="M107.38 34.12C105.998 33.3384 104.427 32.951 102.84 33L62.75 33.13V33.07C70.95 32.21 70.83 21.7 62.36 21.15C64.72 19.26 63.77 15.07 59.47 15.07H45.29C45.5795 13.5697 45.4593 12.019 44.9419 10.5813C44.4245 9.14352 43.5291 7.87182 42.35 6.9C42.8435 6.99941 43.3488 7.02636 43.85 6.98C48.25 6.64 47.85 -0.02 43.46 -0.02H14.67C13.611 -0.0200827 12.5624 0.19011 11.5853 0.598386C10.6081 1.00666 9.72168 1.6049 8.97749 2.35839C8.2333 3.11188 7.64612 4.00564 7.25002 4.98781C6.85391 5.96999 6.65676 7.02104 6.67 8.08L7.48 97.57C7.50087 99.4023 8.23938 101.153 9.53694 102.447C10.8345 103.741 12.5877 104.474 14.42 104.49L48.42 104.65C62.7 104.65 62.72 86.65 48.42 86.65V86.13H61C65 86.13 66.11 82.49 64.33 80.46H73.75C83.05 80.46 83.27 69.01 74.38 68.46H89.82C91.0077 68.5226 92.1868 68.226 93.2035 67.6088C94.2202 66.9917 95.0274 66.0826 95.52 65C99.96 64.28 101.74 60.6 100.82 57.53C103.157 57.599 105.452 56.8961 107.35 55.53L107.38 34.12Z" fill="#7FB8C4"/>
<path d="M103.69 42.61C107.17 39.19 105.12 33.09 97.92 33.09L57.12 33.22V33.15C65.46 32.3 65.34 21.76 56.72 21.21C59.13 19.31 58.16 15.11 53.72 15.11H39.34C39.632 13.6011 39.507 12.0411 38.9784 10.598C38.4498 9.15488 37.5376 7.88325 36.34 6.92C36.8468 7.02034 37.3655 7.04728 37.88 7C42.36 6.66 41.97 -4.95202e-08 37.48 -4.95202e-08H8.16999C7.09825 -0.00793265 6.03556 0.196647 5.04337 0.601912C4.05117 1.00718 3.14914 1.60509 2.38942 2.36109C1.62971 3.11708 1.02738 4.01617 0.617245 5.00636C0.207115 5.99656 -0.00267775 7.05823 -5.30348e-06 8.13L0.819995 97.89C0.829141 98.8093 1.01927 99.7177 1.37953 100.564C1.73979 101.409 2.26312 102.176 2.91964 102.819C3.57616 103.463 4.35301 103.971 5.20583 104.314C6.05865 104.657 6.97073 104.829 7.88999 104.82L42.54 104.98C57.07 104.98 57.1 86.98 42.54 86.98V86.46H55.36C59.44 86.46 60.56 82.8 58.75 80.77H68.33C77.8 80.77 78.03 69.29 68.98 68.77H84.67C85.8724 68.8421 87.0686 68.5506 88.103 67.9335C89.1375 67.3164 89.9622 66.4023 90.47 65.31C94.99 64.59 96.8 60.9 95.87 57.81C106.3 57.43 108.92 47.65 103.69 42.61Z" fill="url(#paint0_radial)"/>
<path d="M29.6744 52.4653C29.6744 53.1606 29.5415 53.8169 29.2759 54.4341C29.0181 55.0434 28.6587 55.5786 28.1978 56.0395C27.7447 56.4927 27.2095 56.852 26.5923 57.1177C25.983 57.3755 25.3306 57.5044 24.6353 57.5044C24.0103 57.5044 23.4087 57.395 22.8306 57.1763C22.2603 56.9575 21.7447 56.6372 21.2837 56.2153C20.8228 56.6372 20.3033 56.9575 19.7251 57.1763C19.147 57.395 18.5455 57.5044 17.9205 57.5044C17.2251 57.5044 16.5689 57.3755 15.9517 57.1177C15.3423 56.852 14.8072 56.4927 14.3462 56.0395C13.8931 55.5786 13.5337 55.0434 13.2681 54.4341C13.0103 53.8169 12.8814 53.1606 12.8814 52.4653V40.4653H16.2447V52.4653C16.2447 52.6997 16.2876 52.9223 16.3736 53.1333C16.4595 53.3364 16.5767 53.5161 16.7251 53.6723C16.8814 53.8208 17.0611 53.938 17.2642 54.0239C17.4673 54.1098 17.6861 54.1528 17.9205 54.1528C18.1548 54.1528 18.3736 54.1098 18.5767 54.0239C18.7798 53.938 18.9556 53.8208 19.104 53.6723C19.2603 53.5161 19.3814 53.3364 19.4673 53.1333C19.5533 52.9223 19.5962 52.6997 19.5962 52.4653V40.4653H22.9595V52.4653C22.9595 52.6997 23.0025 52.9223 23.0884 53.1333C23.1744 53.3364 23.2915 53.5161 23.44 53.6723C23.5962 53.8208 23.7759 53.938 23.979 54.0239C24.1822 54.1098 24.4009 54.1528 24.6353 54.1528C24.8697 54.1528 25.0884 54.1098 25.2915 54.0239C25.4947 53.938 25.6705 53.8208 25.8189 53.6723C25.9751 53.5161 26.0962 53.3364 26.1822 53.1333C26.2759 52.9223 26.3228 52.6997 26.3228 52.4653V40.4653H29.6744V52.4653ZM36.2837 56.0747C36.2837 56.3559 36.233 56.6216 36.1314 56.8716C36.0298 57.1138 35.8892 57.3247 35.7095 57.5044C35.5298 57.6841 35.3189 57.8247 35.0767 57.9263C34.8345 58.0356 34.5728 58.0903 34.2915 58.0903C34.0181 58.0903 33.7564 58.0356 33.5064 57.9263C33.2642 57.8247 33.0494 57.6841 32.8619 57.5044C32.6822 57.3247 32.5376 57.1138 32.4283 56.8716C32.3267 56.6216 32.2759 56.3559 32.2759 56.0747C32.2759 55.8013 32.3267 55.5434 32.4283 55.3013C32.5376 55.0591 32.6822 54.8481 32.8619 54.6684C33.0494 54.4888 33.2642 54.3481 33.5064 54.2466C33.7564 54.1372 34.0181 54.0825 34.2915 54.0825C34.5728 54.0825 34.8345 54.1372 35.0767 54.2466C35.3189 54.3481 35.5298 54.4888 35.7095 54.6684C35.8892 54.8481 36.0298 55.0591 36.1314 55.3013C36.233 55.5434 36.2837 55.8013 36.2837 56.0747ZM48.9048 50.5552V47.1919C48.9048 46.7309 48.815 46.2973 48.6353 45.8911C48.4634 45.477 48.2251 45.1177 47.9205 44.813C47.6158 44.5083 47.2564 44.27 46.8423 44.0981C46.4361 43.9184 46.0025 43.8286 45.5415 43.8286C45.0806 43.8286 44.6431 43.9184 44.229 44.0981C43.8228 44.27 43.4673 44.5083 43.1626 44.813C42.858 45.1177 42.6158 45.477 42.4361 45.8911C42.2642 46.2973 42.1783 46.7309 42.1783 47.1919V50.5552H48.9048ZM52.2681 57.27H48.9048V53.9067H42.1783V57.27H38.8267V47.1919C38.8267 46.2622 39.0025 45.3911 39.354 44.5786C39.7056 43.7583 40.1822 43.0434 40.7837 42.4341C41.3931 41.8247 42.104 41.3442 42.9165 40.9927C43.7369 40.6411 44.6119 40.4653 45.5415 40.4653C46.4712 40.4653 47.3423 40.6411 48.1548 40.9927C48.9751 41.3442 49.69 41.8247 50.2994 42.4341C50.9087 43.0434 51.3892 43.7583 51.7408 44.5786C52.0923 45.3911 52.2681 46.2622 52.2681 47.1919V57.27ZM58.7837 56.0747C58.7837 56.3559 58.733 56.6216 58.6314 56.8716C58.5298 57.1138 58.3892 57.3247 58.2095 57.5044C58.0298 57.6841 57.8189 57.8247 57.5767 57.9263C57.3345 58.0356 57.0728 58.0903 56.7915 58.0903C56.5181 58.0903 56.2564 58.0356 56.0064 57.9263C55.7642 57.8247 55.5494 57.6841 55.3619 57.5044C55.1822 57.3247 55.0376 57.1138 54.9283 56.8716C54.8267 56.6216 54.7759 56.3559 54.7759 56.0747C54.7759 55.8013 54.8267 55.5434 54.9283 55.3013C55.0376 55.0591 55.1822 54.8481 55.3619 54.6684C55.5494 54.4888 55.7642 54.3481 56.0064 54.2466C56.2564 54.1372 56.5181 54.0825 56.7915 54.0825C57.0728 54.0825 57.3345 54.1372 57.5767 54.2466C57.8189 54.3481 58.0298 54.4888 58.2095 54.6684C58.3892 54.8481 58.5298 55.0591 58.6314 55.3013C58.733 55.5434 58.7837 55.8013 58.7837 56.0747ZM60.5298 45.5044C60.5298 44.8091 60.6626 44.1567 60.9283 43.5473C61.1939 42.938 61.5533 42.4067 62.0064 41.9536C62.4673 41.4927 63.0025 41.1294 63.6119 40.8638C64.2212 40.5981 64.8736 40.4653 65.5689 40.4653H73.2798V43.8286H65.5689C65.3345 43.8286 65.1158 43.8716 64.9126 43.9575C64.7095 44.0434 64.5298 44.1645 64.3736 44.3208C64.2251 44.4692 64.108 44.645 64.022 44.8481C63.9361 45.0513 63.8931 45.27 63.8931 45.5044C63.8931 45.7388 63.9361 45.9614 64.022 46.1723C64.108 46.3755 64.2251 46.5552 64.3736 46.7114C64.5298 46.8598 64.7095 46.977 64.9126 47.063C65.1158 47.1489 65.3345 47.1919 65.5689 47.1919H68.9322C69.6275 47.1919 70.2798 47.3247 70.8892 47.5903C71.5064 47.8481 72.0415 48.2075 72.4947 48.6684C72.9556 49.1216 73.315 49.6567 73.5728 50.2739C73.8384 50.8833 73.9712 51.5356 73.9712 52.2309C73.9712 52.9263 73.8384 53.5786 73.5728 54.188C73.315 54.7973 72.9556 55.3325 72.4947 55.7934C72.0415 56.2466 71.5064 56.6059 70.8892 56.8716C70.2798 57.1372 69.6275 57.27 68.9322 57.27H61.4673V53.9067H68.9322C69.1665 53.9067 69.3853 53.8638 69.5884 53.7778C69.7915 53.6919 69.9673 53.5747 70.1158 53.4263C70.272 53.27 70.3931 53.0903 70.479 52.8872C70.565 52.6841 70.608 52.4653 70.608 52.2309C70.608 51.9966 70.565 51.7778 70.479 51.5747C70.3931 51.3716 70.272 51.1958 70.1158 51.0473C69.9673 50.8911 69.7915 50.77 69.5884 50.6841C69.3853 50.5981 69.1665 50.5552 68.9322 50.5552H65.5689C64.8736 50.5552 64.2212 50.4223 63.6119 50.1567C63.0025 49.8911 62.4673 49.5317 62.0064 49.0786C61.5533 48.6177 61.1939 48.0825 60.9283 47.4731C60.6626 46.8559 60.5298 46.1997 60.5298 45.5044ZM79.7837 56.0747C79.7837 56.3559 79.733 56.6216 79.6314 56.8716C79.5298 57.1138 79.3892 57.3247 79.2095 57.5044C79.0298 57.6841 78.8189 57.8247 78.5767 57.9263C78.3345 58.0356 78.0728 58.0903 77.7915 58.0903C77.5181 58.0903 77.2564 58.0356 77.0064 57.9263C76.7642 57.8247 76.5494 57.6841 76.3619 57.5044C76.1822 57.3247 76.0376 57.1138 75.9283 56.8716C75.8267 56.6216 75.7759 56.3559 75.7759 56.0747C75.7759 55.8013 75.8267 55.5434 75.9283 55.3013C76.0376 55.0591 76.1822 54.8481 76.3619 54.6684C76.5494 54.4888 76.7642 54.3481 77.0064 54.2466C77.2564 54.1372 77.5181 54.0825 77.7915 54.0825C78.0728 54.0825 78.3345 54.1372 78.5767 54.2466C78.8189 54.3481 79.0298 54.4888 79.2095 54.6684C79.3892 54.8481 79.5298 55.0591 79.6314 55.3013C79.733 55.5434 79.7837 55.8013 79.7837 56.0747ZM95.979 48.8677C95.979 49.6411 95.8775 50.3872 95.6744 51.1059C95.479 51.8169 95.1978 52.4848 94.8306 53.1098C94.4634 53.727 94.0259 54.2934 93.5181 54.8091C93.0103 55.3169 92.4439 55.7544 91.8189 56.1216C91.1939 56.4888 90.522 56.7739 89.8033 56.977C89.0923 57.1723 88.3501 57.27 87.5767 57.27H82.5142V40.4653H87.5767C88.3501 40.4653 89.0923 40.5669 89.8033 40.77C90.522 40.9653 91.1939 41.2466 91.8189 41.6138C92.4439 41.9809 93.0103 42.4223 93.5181 42.938C94.0259 43.4458 94.4634 44.0122 94.8306 44.6372C95.1978 45.2544 95.479 45.9223 95.6744 46.6411C95.8775 47.352 95.979 48.0942 95.979 48.8677ZM92.6158 48.8677C92.6158 48.1723 92.483 47.52 92.2173 46.9106C91.9595 46.3013 91.6001 45.77 91.1392 45.3169C90.6861 44.8559 90.1509 44.4927 89.5337 44.227C88.9244 43.9614 88.272 43.8286 87.5767 43.8286H85.9009V53.9067H87.5767C88.272 53.9067 88.9244 53.7778 89.5337 53.52C90.1509 53.2544 90.6861 52.895 91.1392 52.4419C91.6001 51.9809 91.9595 51.4458 92.2173 50.8364C92.483 50.2192 92.6158 49.563 92.6158 48.8677Z" fill="white"/>
</g>
<defs>
<radialGradient id="paint0_radial" cx="0" cy="0" r="1" gradientUnits="userSpaceOnUse" gradientTransform="translate(50.4912 53.1532) rotate(-20.96) scale(75.85 77.367)">
<stop stop-color="#A29BFE"/>
<stop offset="0.23" stop-color="#99B0F9"/>
<stop offset="0.74" stop-color="#88DBF0"/>
<stop offset="1" stop-color="#81ECEC"/>
</radialGradient>
<clipPath id="clip0">
<rect width="107.38" height="104.98" fill="white"/>
</clipPath>
</defs>
</svg>
