<svg width="33" height="33" viewBox="0 0 33 33" fill="none" xmlns="http://www.w3.org/2000/svg">
<path d="M24.0832 15.0322L18.2227 15.0322V9.17168H15.0322V15.0322L9.17171 15.0322L9.17171 18.2226L15.0322 18.2226L15.0322 24.0832H18.2227L18.2227 18.2226L24.0832 18.2226L24.0832 15.0322ZM27.9411 5.31371C21.6847 -0.942773 11.5702 -0.942773 5.31373 5.31371C-0.942747 11.5702 -0.942748 21.6846 5.31373 27.9411C11.5702 34.1976 21.6847 34.1976 27.9411 27.9411C34.1976 21.6846 34.1976 11.5702 27.9411 5.31371ZM7.57647 25.6784C2.58713 20.689 2.58713 12.5658 7.57647 7.57645C12.5658 2.5871 20.6891 2.5871 25.6784 7.57645C30.6678 12.5658 30.6678 20.689 25.6784 25.6784C20.6891 30.6677 12.5658 30.6677 7.57647 25.6784Z" fill="#888888" fill-opacity="0.54"/>
</svg>
